<?xml version="1.0" standalone="no"?>
<!DOCTYPE svg PUBLIC "-//W3C//DTD SVG 20010904//EN"
 "http://www.w3.org/TR/2001/REC-SVG-20010904/DTD/svg10.dtd">
<svg version="1.0" xmlns="http://www.w3.org/2000/svg"
 width="226.000000pt" height="223.000000pt" viewBox="0 0 226.000000 223.000000"
 preserveAspectRatio="xMidYMid meet">

<g transform="translate(0.000000,223.000000) scale(0.100000,-0.100000)"
fill="#000000" stroke="none">
<path d="M929 2210 c-424 -72 -769 -386 -887 -807 -25 -91 -27 -111 -27 -288
0 -164 3 -201 22 -270 57 -209 138 -349 288 -500 150 -151 266 -225 450 -284
130 -42 235 -55 394 -48 165 7 280 36 426 106 441 211 692 698 609 1182 -79
459 -431 817 -887 904 -84 16 -306 19 -388 5z m328 -61 c253 -34 509 -181 670
-383 77 -97 164 -269 193 -383 115 -451 -74 -918 -471 -1161 -394 -241 -909
-186 -1248 134 -143 134 -247 308 -298 499 -23 89 -26 118 -26 260 0 141 3
172 26 257 139 519 629 849 1154 777z"/>
</g>
</svg>
